<svg width="22" height="21" viewBox="0 0 22 21" fill="none" xmlns="http://www.w3.org/2000/svg">
<path d="M0.0341797 3.57821V0H4.11251V3.57821H0.0341797ZM0.267227 21V6.65782H3.9086V21H0.267227Z" fill="#282828"/>
<path d="M7.6922 21V6.65782H11.2462V8.88687C11.7317 8.06564 12.3823 7.43994 13.198 7.00978C14.033 6.57961 14.9652 6.36452 15.9945 6.36452C19.3543 6.36452 21.0342 8.32961 21.0342 12.2598V21H17.3928V12.4358C17.3928 11.3212 17.1792 10.5098 16.7519 10.0014C16.3441 9.49302 15.7032 9.23882 14.8293 9.23882C13.7612 9.23882 12.9066 9.581 12.2658 10.2654C11.6443 10.9302 11.3336 11.8198 11.3336 12.9344V21H7.6922Z" fill="#282828"/>
</svg>
