<svg width="26" height="25" viewBox="0 0 26 25" fill="none" xmlns="http://www.w3.org/2000/svg">
<path d="M8.07882 23.923C6.15025 23.8203 4.48954 23.4096 3.04311 22.0748L8.07882 23.923ZM8.07882 23.923C10.061 24.0257 16.0074 24.0257 17.9895 23.923H8.07882ZM25.0037 7.7483L25.0037 7.74822C24.8962 5.89394 24.4656 4.23635 23.0598 2.88912C21.6545 1.54229 19.9259 1.13003 17.9922 1.02708L17.9921 1.02708C16.0083 0.924308 10.0601 0.924308 8.07624 1.02708L8.07616 1.02708C6.14172 1.13007 4.46764 1.54257 3.0092 2.88848L3.00919 2.88847L3.00851 2.88912C1.60271 4.23635 1.17212 5.89394 1.06462 7.74822L1.06462 7.7483C0.957368 9.64973 0.957368 15.3503 1.06462 17.2517L1.06462 17.2518C1.17216 19.1068 1.60301 20.7121 3.00784 22.1102L3.0092 22.1115C4.46764 23.4574 6.14172 23.8699 8.07616 23.9729L8.07624 23.9729C10.0601 24.0757 16.0083 24.0757 17.9921 23.9729L17.9922 23.9729C19.9259 23.87 21.6545 23.4577 23.0599 22.1109L23.0605 22.1102C24.4653 20.7121 24.8962 19.1068 25.0037 17.2518L25.0037 17.2517C25.111 15.3503 25.111 9.64973 25.0037 7.7483ZM22.3365 19.2313L22.3364 19.2313L22.3354 19.234C21.9662 20.2448 21.1213 21.0056 20.1141 21.4122C19.3196 21.7166 17.9888 21.8323 16.6354 21.8708C15.6876 21.8978 14.7341 21.8869 13.9527 21.878C13.6196 21.8742 13.3178 21.8708 13.061 21.8708C12.7944 21.8708 12.4835 21.8742 12.1421 21.8781C11.3489 21.887 10.3915 21.8977 9.44632 21.8708C8.09256 21.8322 6.77535 21.7165 6.00797 21.4122L6.00743 21.412C4.94832 21.006 4.15523 20.2456 3.73211 19.2319L3.73187 19.2313C3.57389 18.8654 3.46412 18.367 3.389 17.7959C3.31396 17.2254 3.27386 16.5855 3.2538 15.9382C3.22573 15.0325 3.23692 14.1153 3.24619 13.3551C3.25019 13.028 3.25382 12.7299 3.25382 12.4743C3.25382 12.2281 3.25023 11.9388 3.24627 11.6195C3.23698 10.8707 3.22565 9.9572 3.2538 9.04898C3.294 7.75203 3.41467 6.47771 3.73193 5.71724C4.155 4.75461 4.94822 3.99401 6.00743 3.58799L6.00797 3.58777C6.77535 3.28347 8.09256 3.16776 9.44632 3.12922C10.3915 3.10232 11.3488 3.11304 12.1421 3.12193C12.4835 3.12576 12.7944 3.12924 13.061 3.12924C13.3178 3.12924 13.6196 3.1258 13.9527 3.12201C14.7341 3.1131 15.6876 3.10224 16.6354 3.12922C17.989 3.16775 19.32 3.28342 20.1145 3.58798L20.1145 3.588L20.1157 3.58844C21.1188 3.94258 21.9126 4.75291 22.3364 5.7172C22.6537 6.47766 22.7744 7.75201 22.8146 9.04898C22.8427 9.95721 22.8314 10.8707 22.8221 11.6195C22.8181 11.9388 22.8145 12.2281 22.8145 12.4743C22.8145 12.7299 22.8182 13.028 22.8222 13.3551C22.8314 14.1153 22.8426 15.0325 22.8146 15.9382C22.7945 16.5855 22.7544 17.2254 22.6794 17.7959C22.6042 18.367 22.4945 18.8654 22.3365 19.2313ZM13.061 6.52031C9.60652 6.52031 6.85025 9.21064 6.85025 12.4743C6.85025 15.7896 9.60681 18.4283 13.061 18.4283C16.4613 18.4283 19.2717 15.7899 19.2717 12.4743C19.2717 9.21036 16.4616 6.52031 13.061 6.52031ZM13.061 16.2748C10.8897 16.2748 9.09311 14.6006 9.09311 12.4743C9.09311 10.3994 10.8361 8.72522 13.061 8.72522C15.2318 8.72522 16.9753 10.399 16.9753 12.4743C16.9753 14.6014 15.2314 16.2748 13.061 16.2748ZM20.9324 6.36496C20.9324 5.56527 20.2651 4.92879 19.436 4.92879C18.6068 4.92879 17.9395 5.56527 17.9395 6.36496C17.9395 7.16464 18.6068 7.80112 19.436 7.80112C20.2651 7.80112 20.9324 7.16464 20.9324 6.36496Z" fill="#282828" stroke="white" stroke-width="0.1"/>
</svg>
